<?xml version="1.0" encoding="UTF-8" ?>
<!DOCTYPE svg PUBLIC "-//W3C//DTD SVG 1.1//EN" "http://www.w3.org/Graphics/SVG/1.1/DTD/svg11.dtd">
<svg width="424.5pt" height="132.75pt" viewBox="0 0 4000 1247" version="1.1" xmlns="http://www.w3.org/2000/svg">
<g id="#ffffffff">
<path fill="#ffffff" opacity="1.00" d=" M 1177.56 0.00 L 1178.18 0.00 C 1194.47 35.24 1211.21 70.28 1227.46 105.54 C 1237.35 127.75 1246.58 150.26 1254.67 173.19 C 1260.49 189.74 1265.76 206.53 1269.49 223.69 C 1274.20 246.07 1273.54 269.32 1269.42 291.73 C 1324.05 289.20 1378.70 286.89 1433.35 284.81 C 1469.89 283.46 1506.44 282.19 1543.00 281.74 C 1564.22 281.65 1585.28 285.09 1606.07 289.04 C 1647.21 297.22 1687.29 311.65 1723.21 333.48 C 1722.47 320.84 1721.78 308.19 1720.95 295.55 C 1775.96 294.66 1830.99 294.46 1886.00 293.75 C 1937.67 293.32 1989.33 292.70 2041.00 292.25 C 2059.95 292.21 2078.92 291.53 2097.86 291.90 C 2111.85 302.20 2125.32 313.27 2139.12 323.87 C 2192.50 365.50 2245.72 407.34 2299.20 448.84 C 2299.41 423.55 2299.02 398.25 2299.40 372.97 C 2299.64 349.19 2299.42 325.40 2299.51 301.62 C 2417.68 294.15 2535.85 286.46 2654.03 278.90 C 2682.30 276.95 2710.65 276.26 2738.98 275.29 C 2789.19 274.06 2839.49 272.79 2889.66 275.76 C 2934.00 278.76 2977.82 289.53 3018.43 307.60 C 3067.47 329.38 3111.80 361.40 3148.33 400.66 C 3159.49 412.66 3170.11 425.26 3178.78 439.21 C 3181.19 442.96 3183.39 446.85 3185.88 450.56 C 3196.13 396.84 3206.20 343.08 3216.26 289.32 C 3340.15 283.47 3464.04 277.44 3587.93 271.45 C 3667.10 549.68 3746.55 827.83 3825.79 1106.03 C 3834.27 1136.11 3843.16 1166.08 3851.33 1196.24 C 3722.61 1199.59 3593.90 1202.90 3465.19 1206.15 C 3454.54 1169.10 3443.29 1132.23 3432.65 1095.19 C 3430.12 1095.25 3427.62 1095.36 3425.15 1095.48 C 3419.66 1130.00 3414.09 1164.50 3408.70 1199.03 C 3299.46 1197.40 3190.21 1196.33 3080.97 1194.83 C 3069.28 1194.83 3057.61 1194.41 3045.93 1194.51 C 3054.94 1146.17 3064.22 1097.89 3073.12 1049.53 C 3044.04 1073.53 3012.56 1094.70 2978.92 1111.79 C 2938.96 1132.24 2896.51 1147.47 2853.28 1159.34 C 2807.67 1171.70 2761.10 1180.67 2714.09 1185.57 C 2627.12 1189.43 2540.16 1193.38 2453.18 1197.08 C 2440.40 1181.79 2427.40 1166.69 2414.54 1151.47 C 2407.62 1143.48 2401.03 1135.20 2393.88 1127.41 C 2396.27 1160.70 2399.12 1193.96 2401.65 1227.23 C 2275.27 1231.60 2148.90 1236.30 2022.53 1240.81 C 2021.53 1204.95 2020.55 1169.09 2019.47 1133.24 C 2003.31 1133.27 1987.16 1133.24 1971.00 1133.25 C 1967.22 1133.41 1963.31 1132.71 1959.65 1133.86 C 1848.67 1171.57 1737.69 1209.30 1626.71 1247.00 L 1626.01 1247.00 C 1612.43 1224.47 1598.74 1202.01 1585.17 1179.48 C 1451.44 1181.44 1317.72 1183.87 1184.00 1186.02 C 1182.43 1148.01 1180.84 1110.00 1179.48 1071.99 C 1119.35 1073.16 1059.21 1074.18 999.08 1075.50 C 1005.70 1105.39 1012.16 1135.33 1018.84 1165.21 C 888.26 1182.04 757.68 1198.90 627.08 1215.55 C 616.10 1157.13 604.76 1098.79 593.61 1040.41 C 565.53 1069.14 537.95 1098.37 509.98 1127.23 C 484.02 1096.52 458.04 1065.83 432.13 1035.08 C 417.26 1092.71 402.28 1150.31 387.51 1207.97 C 258.33 1183.03 129.18 1157.86 0.00 1132.92 L 0.00 1132.24 C 88.38 824.68 176.71 517.12 265.18 209.59 C 353.76 289.41 442.21 369.37 530.76 449.21 C 531.58 450.22 532.65 448.89 533.41 448.48 C 626.49 374.63 719.52 300.73 812.67 226.98 C 820.60 263.22 828.56 299.46 836.55 335.69 C 835.41 319.61 835.18 303.39 837.57 287.41 C 840.66 265.43 848.82 244.28 860.61 225.52 C 877.86 198.03 904.29 177.47 933.06 163.10 C 960.93 148.66 991.24 139.69 1019.09 125.21 C 1043.79 112.54 1066.88 96.87 1088.53 79.53 C 1102.95 67.68 1116.44 54.76 1130.44 42.42 C 1146.14 28.27 1161.94 14.24 1177.56 0.00 M 1133.99 145.00 C 1101.85 170.23 1066.94 192.23 1029.28 208.26 C 1005.27 218.83 979.96 226.78 957.35 240.32 C 942.13 249.38 928.98 262.53 922.01 279.01 C 914.42 295.47 914.21 314.22 916.31 331.91 C 918.75 349.87 924.99 368.01 937.52 381.49 C 945.17 389.68 955.18 395.17 965.28 399.75 C 991.81 411.18 1021.75 412.72 1050.00 408.00 C 1073.40 404.05 1096.03 395.65 1116.37 383.44 C 1143.61 367.27 1165.26 342.43 1179.09 314.06 C 1188.90 293.59 1195.06 270.76 1192.90 247.92 C 1191.94 239.05 1189.36 230.46 1186.97 221.89 C 1177.56 190.65 1164.89 160.53 1151.66 130.75 C 1145.51 135.17 1140.06 140.47 1133.99 145.00 M 306.32 353.94 C 279.11 449.06 251.69 544.12 224.39 639.22 C 182.97 783.21 141.72 927.24 100.19 1071.20 C 176.49 1086.17 252.84 1100.89 329.18 1115.63 C 350.59 1032.65 372.12 949.71 393.44 866.71 C 399.22 872.25 403.89 878.84 409.22 884.81 C 444.15 926.00 478.80 967.43 513.90 1008.47 C 549.18 971.57 584.64 934.83 619.95 897.95 C 627.69 890.28 634.75 881.90 642.85 874.62 C 658.85 958.80 675.19 1042.92 691.12 1127.11 C 722.15 1123.34 753.13 1119.16 784.15 1115.24 C 830.24 1109.20 876.40 1103.57 922.46 1097.30 C 869.16 854.43 815.66 611.62 762.46 368.73 C 759.77 370.19 757.44 372.19 755.08 374.11 C 681.49 432.50 607.88 490.88 534.29 549.28 C 532.23 550.76 530.46 552.80 528.08 553.78 C 513.03 540.59 498.33 526.98 483.42 513.62 C 424.35 460.43 365.49 407.01 306.32 353.94 M 2665.89 357.77 C 2671.57 497.86 2677.26 637.94 2682.96 778.03 C 2687.34 887.76 2692.01 997.48 2696.22 1107.22 C 2718.10 1105.81 2739.80 1102.27 2761.40 1098.59 C 2806.90 1090.39 2851.90 1078.81 2895.08 1062.18 C 2928.18 1049.48 2960.07 1033.42 2989.30 1013.32 C 3021.54 991.26 3050.73 964.64 3075.10 934.08 C 3098.54 904.80 3117.37 871.86 3130.82 836.85 C 3146.41 796.39 3154.59 753.29 3156.71 710.03 C 3159.15 659.35 3155.49 608.13 3143.38 558.78 C 3134.72 524.94 3121.95 491.00 3098.65 464.38 C 3075.56 437.22 3048.03 413.76 3017.19 395.83 C 2978.14 373.09 2933.97 359.25 2888.95 355.45 C 2862.69 353.43 2836.32 353.48 2810.00 353.50 C 2761.95 354.04 2713.89 355.35 2665.89 357.77 M 3283.12 365.66 C 3282.59 367.37 3282.17 369.10 3281.86 370.85 C 3235.13 619.21 3188.34 867.56 3141.63 1115.93 C 3157.09 1116.53 3172.57 1116.25 3188.04 1116.69 C 3239.04 1117.12 3290.04 1118.14 3341.04 1118.41 C 3346.05 1085.58 3351.62 1052.84 3356.54 1020.00 C 3401.32 1017.14 3446.13 1014.66 3490.92 1011.98 C 3501.93 1049.65 3513.20 1087.25 3524.16 1124.93 C 3546.78 1124.74 3569.40 1123.83 3592.03 1123.35 C 3643.66 1122.14 3695.29 1120.53 3746.92 1119.53 C 3674.35 864.31 3601.37 609.21 3528.77 354.01 C 3446.88 357.75 3365.01 362.04 3283.12 365.66 M 2378.94 375.46 C 2378.38 418.63 2379.14 461.83 2378.50 505.00 C 2378.56 540.62 2378.39 576.24 2378.58 611.86 C 2292.18 544.47 2205.88 476.94 2119.53 409.48 C 2105.57 398.78 2091.98 387.56 2077.79 377.18 C 2078.96 428.79 2080.69 480.40 2082.03 532.01 C 2088.01 740.81 2093.76 949.61 2099.81 1158.41 C 2171.82 1155.92 2243.82 1153.16 2315.83 1150.71 C 2309.04 1063.14 2301.92 975.59 2295.19 888.01 C 2357.97 961.83 2420.62 1035.77 2483.33 1109.64 C 2485.52 1111.69 2486.90 1115.36 2490.02 1115.98 C 2537.00 1114.26 2583.98 1111.92 2630.97 1110.36 C 2631.51 1104.23 2630.59 1098.09 2630.48 1091.96 C 2618.67 847.84 2606.78 603.72 2595.00 359.60 C 2522.97 364.74 2450.97 370.36 2378.94 375.46 M 1472.03 363.01 C 1391.65 365.90 1311.30 369.44 1230.96 373.05 C 1240.75 617.10 1250.57 861.14 1260.25 1105.19 C 1333.82 1103.99 1407.40 1102.76 1480.98 1101.54 C 1479.73 1083.24 1477.82 1064.98 1476.31 1046.69 C 1471.49 991.80 1466.67 936.90 1461.84 882.01 C 1459.97 858.94 1457.48 835.92 1455.99 812.83 C 1483.85 858.41 1511.34 904.21 1539.08 949.86 C 1579.71 1017.02 1620.40 1084.15 1661.02 1151.31 C 1721.18 1130.88 1781.38 1110.56 1841.47 1089.93 C 1835.99 1079.83 1829.48 1070.28 1823.64 1060.38 C 1769.63 972.38 1715.67 884.35 1661.65 796.37 C 1660.46 793.97 1658.10 791.82 1657.91 789.16 C 1684.06 768.08 1705.72 741.73 1722.89 712.94 C 1746.95 672.37 1761.06 626.05 1764.07 579.00 C 1765.21 559.88 1765.26 540.59 1762.57 521.60 C 1759.51 500.41 1752.77 479.64 1741.91 461.14 C 1725.23 432.24 1698.99 409.76 1669.65 394.36 C 1632.72 375.01 1591.46 364.88 1550.08 361.32 C 1524.05 360.95 1498.04 362.25 1472.03 363.01 M 1850.00 374.00 C 1835.16 373.77 1820.33 374.64 1805.51 374.09 C 1806.29 395.76 1807.96 417.39 1809.12 439.04 C 1820.77 637.48 1832.64 835.90 1844.16 1034.35 C 1861.75 1034.82 1879.36 1034.13 1896.96 1034.74 C 1944.32 1034.78 1991.68 1034.61 2039.04 1035.00 C 2034.60 907.35 2030.42 779.69 2026.05 652.03 C 2023.02 558.97 2019.61 465.91 2016.77 372.84 C 2002.17 372.44 1987.59 373.22 1972.99 373.00 C 1932.00 373.42 1890.99 373.60 1850.00 374.00 M 926.77 470.82 C 934.44 599.04 942.13 727.26 949.81 855.47 C 952.73 902.55 955.25 949.66 958.42 996.72 C 1032.79 995.22 1107.17 993.68 1181.55 992.53 C 1180.14 971.71 1179.22 950.86 1177.99 930.03 C 1172.27 826.25 1166.54 722.46 1160.81 618.67 C 1158.06 566.73 1154.85 514.81 1152.39 462.86 C 1148.30 462.15 1144.15 462.78 1140.04 462.83 C 1068.95 465.50 997.86 468.17 926.77 470.82 Z" />
<path fill="#ffffff" opacity="1.00" d=" M 3758.66 345.66 C 3788.07 322.98 3826.01 312.04 3862.98 314.91 C 3897.98 317.26 3932.21 332.07 3957.20 356.80 C 3982.58 381.23 3997.95 415.43 4000.00 450.55 L 4000.00 467.43 C 3998.67 486.76 3993.97 505.94 3985.34 523.34 C 3972.57 549.63 3951.44 571.68 3925.91 585.86 C 3889.40 606.36 3844.33 610.28 3804.54 597.63 C 3773.73 587.84 3746.22 567.81 3727.82 541.20 C 3705.95 510.07 3697.53 470.05 3704.56 432.71 C 3710.87 398.25 3730.88 366.85 3758.66 345.66 M 3840.52 348.80 C 3809.47 351.56 3780.29 369.10 3763.06 395.04 C 3739.00 430.22 3737.19 478.92 3757.95 516.05 C 3767.41 533.19 3781.58 547.72 3798.64 557.37 C 3832.14 576.52 3876.17 575.66 3908.66 554.71 C 3923.96 544.93 3936.59 531.08 3945.09 515.04 C 3964.10 479.56 3963.17 434.18 3942.44 399.63 C 3932.49 382.99 3918.01 369.00 3900.75 360.12 C 3882.38 350.48 3861.11 346.71 3840.52 348.80 Z" />
<path fill="#ffffff" opacity="1.00" d=" M 3793.02 392.55 C 3816.15 389.33 3839.57 387.54 3862.94 388.59 C 3875.08 389.27 3887.63 390.70 3898.57 396.47 C 3905.92 400.16 3912.15 406.32 3915.13 414.08 C 3917.82 421.41 3918.92 429.81 3916.28 437.32 C 3912.41 447.73 3902.73 454.74 3892.72 458.67 C 3890.52 459.67 3887.86 459.89 3886.25 461.79 C 3892.36 464.11 3898.15 467.51 3902.39 472.58 C 3908.79 480.07 3911.81 489.74 3913.88 499.21 C 3916.23 510.07 3918.82 521.03 3923.85 531.01 C 3909.61 530.97 3895.37 531.03 3881.14 530.98 C 3876.43 523.24 3874.78 514.21 3872.63 505.55 C 3870.87 498.73 3870.29 491.10 3865.36 485.64 C 3860.85 480.43 3853.61 478.83 3847.01 478.74 C 3841.66 478.73 3836.32 478.76 3830.99 478.75 C 3831.01 496.17 3830.98 513.59 3831.01 531.01 C 3818.33 530.99 3805.66 530.99 3792.99 531.01 C 3793.02 484.85 3792.97 438.70 3793.02 392.55 M 3832.00 416.06 C 3832.00 427.96 3831.98 439.87 3832.01 451.77 C 3839.25 451.56 3846.53 452.15 3853.77 451.38 C 3860.63 450.47 3868.11 448.08 3872.18 442.06 C 3877.14 434.48 3874.02 423.14 3865.98 419.01 C 3855.54 413.37 3843.29 415.52 3832.00 416.06 Z" />
<path fill="#ffffff" opacity="1.00" d=" M 1455.64 508.65 C 1475.82 505.71 1497.54 508.04 1515.18 518.87 C 1528.66 527.01 1538.55 540.18 1544.30 554.70 C 1551.42 572.88 1553.40 592.66 1552.96 612.06 C 1552.46 628.79 1546.66 645.74 1534.89 657.92 C 1521.53 671.83 1502.69 679.05 1483.99 682.17 C 1476.21 683.38 1468.34 684.22 1460.47 683.91 C 1457.85 625.92 1454.42 567.95 1451.60 509.97 C 1452.52 508.75 1454.28 509.03 1455.64 508.65 Z" />
<path fill="#ffffff" opacity="1.00" d=" M 2855.53 567.66 C 2872.16 570.75 2888.34 576.24 2903.60 583.54 C 2918.90 590.96 2933.34 600.51 2945.18 612.81 C 2959.20 627.01 2969.16 645.21 2973.19 664.77 C 2977.54 685.05 2975.72 706.11 2971.51 726.25 C 2963.84 761.81 2945.55 794.47 2921.74 821.73 C 2907.07 838.45 2890.50 853.62 2872.03 866.05 C 2868.89 812.37 2866.04 758.68 2863.01 705.00 C 2860.59 659.21 2857.70 613.45 2855.53 567.66 Z" />
<path fill="#ffffff" opacity="1.00" d=" M 3416.67 619.65 C 3418.16 621.81 3418.25 624.53 3418.88 627.03 C 3435.17 703.21 3451.63 779.36 3467.89 855.55 C 3439.57 855.84 3411.25 856.89 3382.94 857.20 C 3394.17 778.02 3405.34 698.82 3416.67 619.65 Z" />
</g>
<g id="#0c7a3eff">
<path fill="#0c7a3e" opacity="1.00" d=" M 1133.99 145.00 C 1140.06 140.47 1145.51 135.17 1151.66 130.75 C 1164.89 160.53 1177.56 190.65 1186.97 221.89 C 1189.36 230.46 1191.94 239.05 1192.90 247.92 C 1195.06 270.76 1188.90 293.59 1179.09 314.06 C 1165.26 342.43 1143.61 367.27 1116.37 383.44 C 1096.03 395.65 1073.40 404.05 1050.00 408.00 C 1021.75 412.72 991.81 411.18 965.28 399.75 C 955.18 395.17 945.17 389.68 937.52 381.49 C 924.99 368.01 918.75 349.87 916.31 331.91 C 914.21 314.22 914.42 295.47 922.01 279.01 C 928.98 262.53 942.13 249.38 957.35 240.32 C 979.96 226.78 1005.27 218.83 1029.28 208.26 C 1066.94 192.23 1101.85 170.23 1133.99 145.00 Z" />
<path fill="#0c7a3e" opacity="1.00" d=" M 306.32 353.94 C 365.49 407.01 424.35 460.43 483.42 513.62 C 498.33 526.98 513.03 540.59 528.08 553.78 C 530.46 552.80 532.23 550.76 534.29 549.28 C 607.88 490.88 681.49 432.50 755.08 374.11 C 757.44 372.19 759.77 370.19 762.46 368.73 C 815.66 611.62 869.16 854.43 922.46 1097.30 C 876.40 1103.57 830.24 1109.20 784.15 1115.24 C 753.13 1119.16 722.15 1123.34 691.12 1127.11 C 675.19 1042.92 658.85 958.80 642.85 874.62 C 634.75 881.90 627.69 890.28 619.95 897.95 C 584.64 934.83 549.18 971.57 513.90 1008.47 C 478.80 967.43 444.15 926.00 409.22 884.81 C 403.89 878.84 399.22 872.25 393.44 866.71 C 372.12 949.71 350.59 1032.65 329.18 1115.63 C 252.84 1100.89 176.49 1086.17 100.19 1071.20 C 141.72 927.24 182.97 783.21 224.39 639.22 C 251.69 544.12 279.11 449.06 306.32 353.94 Z" />
<path fill="#0c7a3e" opacity="1.00" d=" M 2665.89 357.77 C 2713.89 355.35 2761.95 354.04 2810.00 353.50 C 2836.32 353.48 2862.69 353.43 2888.95 355.45 C 2933.97 359.25 2978.14 373.09 3017.19 395.83 C 3048.03 413.76 3075.56 437.22 3098.65 464.38 C 3121.95 491.00 3134.72 524.94 3143.38 558.78 C 3155.49 608.13 3159.15 659.35 3156.71 710.03 C 3154.59 753.29 3146.41 796.39 3130.82 836.85 C 3117.37 871.86 3098.54 904.80 3075.10 934.08 C 3050.73 964.64 3021.54 991.26 2989.30 1013.32 C 2960.07 1033.42 2928.18 1049.48 2895.08 1062.18 C 2851.90 1078.81 2806.90 1090.39 2761.40 1098.59 C 2739.80 1102.27 2718.10 1105.81 2696.22 1107.22 C 2692.01 997.48 2687.34 887.76 2682.96 778.03 C 2677.26 637.94 2671.57 497.86 2665.89 357.77 M 2855.53 567.66 C 2857.70 613.45 2860.59 659.21 2863.01 705.00 C 2866.04 758.68 2868.89 812.37 2872.03 866.05 C 2890.50 853.62 2907.07 838.45 2921.74 821.73 C 2945.55 794.47 2963.84 761.81 2971.51 726.25 C 2975.72 706.11 2977.54 685.05 2973.19 664.77 C 2969.16 645.21 2959.20 627.01 2945.18 612.81 C 2933.34 600.51 2918.90 590.96 2903.60 583.54 C 2888.34 576.24 2872.16 570.75 2855.53 567.66 Z" />
<path fill="#0c7a3e" opacity="1.00" d=" M 3283.12 365.66 C 3365.01 362.04 3446.88 357.75 3528.77 354.01 C 3601.37 609.21 3674.35 864.31 3746.92 1119.53 C 3695.29 1120.53 3643.66 1122.14 3592.03 1123.35 C 3569.40 1123.83 3546.78 1124.74 3524.16 1124.93 C 3513.20 1087.25 3501.93 1049.65 3490.92 1011.98 C 3446.13 1014.66 3401.32 1017.14 3356.54 1020.00 C 3351.62 1052.84 3346.05 1085.58 3341.04 1118.41 C 3290.04 1118.14 3239.04 1117.12 3188.04 1116.69 C 3172.57 1116.25 3157.09 1116.53 3141.63 1115.93 C 3188.34 867.56 3235.13 619.21 3281.86 370.85 C 3282.17 369.10 3282.59 367.37 3283.12 365.66 M 3416.67 619.65 C 3405.34 698.82 3394.17 778.02 3382.94 857.20 C 3411.25 856.89 3439.57 855.84 3467.89 855.55 C 3451.63 779.36 3435.17 703.21 3418.88 627.03 C 3418.25 624.53 3418.16 621.81 3416.67 619.65 Z" />
<path fill="#0c7a3e" opacity="1.00" d=" M 2378.94 375.46 C 2450.97 370.36 2522.97 364.74 2595.00 359.60 C 2606.78 603.72 2618.67 847.84 2630.48 1091.96 C 2630.59 1098.09 2631.51 1104.23 2630.97 1110.36 C 2583.98 1111.92 2537.00 1114.26 2490.02 1115.98 C 2486.90 1115.36 2485.52 1111.69 2483.33 1109.64 C 2420.62 1035.77 2357.97 961.83 2295.19 888.01 C 2301.92 975.59 2309.04 1063.14 2315.83 1150.71 C 2243.82 1153.16 2171.82 1155.92 2099.81 1158.41 C 2093.76 949.61 2088.01 740.81 2082.03 532.01 C 2080.69 480.40 2078.96 428.79 2077.79 377.18 C 2091.98 387.56 2105.57 398.78 2119.53 409.48 C 2205.88 476.94 2292.18 544.47 2378.58 611.86 C 2378.39 576.24 2378.56 540.62 2378.50 505.00 C 2379.14 461.83 2378.38 418.63 2378.94 375.46 Z" />
<path fill="#0c7a3e" opacity="1.00" d=" M 1472.03 363.01 C 1498.04 362.25 1524.05 360.95 1550.08 361.32 C 1591.46 364.88 1632.72 375.01 1669.65 394.36 C 1698.99 409.76 1725.23 432.24 1741.91 461.14 C 1752.77 479.64 1759.51 500.41 1762.57 521.60 C 1765.26 540.59 1765.21 559.88 1764.07 579.00 C 1761.06 626.05 1746.95 672.37 1722.89 712.94 C 1705.72 741.73 1684.06 768.08 1657.91 789.16 C 1658.10 791.82 1660.46 793.97 1661.65 796.37 C 1715.67 884.35 1769.63 972.38 1823.64 1060.38 C 1829.48 1070.28 1835.99 1079.83 1841.47 1089.93 C 1781.38 1110.56 1721.18 1130.88 1661.02 1151.31 C 1620.40 1084.15 1579.71 1017.02 1539.08 949.86 C 1511.34 904.21 1483.85 858.41 1455.99 812.83 C 1457.48 835.92 1459.97 858.94 1461.84 882.01 C 1466.67 936.90 1471.49 991.80 1476.31 1046.69 C 1477.82 1064.98 1479.73 1083.24 1480.98 1101.54 C 1407.40 1102.76 1333.82 1103.99 1260.25 1105.19 C 1250.57 861.14 1240.75 617.10 1230.96 373.05 C 1311.30 369.44 1391.65 365.90 1472.03 363.01 M 1455.64 508.65 C 1454.28 509.03 1452.52 508.75 1451.60 509.97 C 1454.42 567.95 1457.85 625.92 1460.47 683.91 C 1468.34 684.22 1476.21 683.38 1483.99 682.17 C 1502.69 679.05 1521.53 671.83 1534.89 657.92 C 1546.66 645.74 1552.46 628.79 1552.96 612.06 C 1553.40 592.66 1551.42 572.88 1544.30 554.70 C 1538.55 540.18 1528.66 527.01 1515.18 518.87 C 1497.54 508.04 1475.82 505.71 1455.64 508.65 Z" />
<path fill="#0c7a3e" opacity="1.00" d=" M 1850.00 374.00 C 1890.99 373.60 1932.00 373.42 1972.99 373.00 C 1987.59 373.22 2002.17 372.44 2016.77 372.84 C 2019.61 465.91 2023.02 558.97 2026.05 652.03 C 2030.42 779.69 2034.60 907.35 2039.04 1035.00 C 1991.68 1034.61 1944.32 1034.78 1896.96 1034.74 C 1879.36 1034.13 1861.75 1034.82 1844.16 1034.35 C 1832.64 835.90 1820.77 637.48 1809.12 439.04 C 1807.96 417.39 1806.29 395.76 1805.51 374.09 C 1820.33 374.64 1835.16 373.77 1850.00 374.00 Z" />
<path fill="#0c7a3e" opacity="1.00" d=" M 926.77 470.82 C 997.86 468.17 1068.95 465.50 1140.04 462.83 C 1144.15 462.78 1148.30 462.15 1152.39 462.86 C 1154.85 514.81 1158.06 566.73 1160.81 618.67 C 1166.54 722.46 1172.27 826.25 1177.99 930.03 C 1179.22 950.86 1180.14 971.71 1181.55 992.53 C 1107.17 993.68 1032.79 995.22 958.42 996.72 C 955.25 949.66 952.73 902.55 949.81 855.47 C 942.13 727.26 934.44 599.04 926.77 470.82 Z" />
</g>
</svg>
